HIERARCHY
ROOT SpineBase
{
  OFFSET 0.000000 0.000000 0.000000
  CHANNELS 6 Xposition Yposition Zposition Zrotation Xrotation Yrotation
  JOINT SpineMid
  {
    OFFSET 0.000000 29.852595 0.000000
    CHANNELS 3 Zrotation Xrotation Yrotation
    JOINT SpineShoulder
    {
      OFFSET 0.053422 22.208628 -0.768897
      CHANNELS 3 Zrotation Xrotation Yrotation
      JOINT Neck
      {
        OFFSET 0.052047 7.376113 -0.564635
        CHANNELS 3 Zrotation Xrotation Yrotation
        JOINT Head
        {
          OFFSET -4.470933 10.200385 -0.012729
          CHANNELS 3 Zrotation Xrotation Yrotation
          End Site
          {
            OFFSET 0 0 0
          }
        }
      }
      JOINT ShoulderLeft
      {
        OFFSET -15.228374 -5.171860 7.634886
        CHANNELS 3 Zrotation Xrotation Yrotation
        JOINT ElbowLeft
        {
          OFFSET -1.196288 -24.901725 0.855251
          CHANNELS 3 Zrotation Xrotation Yrotation
          JOINT WristLeft
          {
            OFFSET 0.708012 -18.108196 -4.887489
            CHANNELS 3 Zrotation Xrotation Yrotation
            JOINT HandLeft
            {
              OFFSET 0.332373 -5.171859 -0.692675
              CHANNELS 3 Zrotation Xrotation Yrotation
              JOINT HandTipLeft
              {
                OFFSET 0.280267 -6.991972 -0.987611
                CHANNELS 3 Zrotation Xrotation Yrotation
                End Site
                {
                  OFFSET 0 0 0
                }
              }
              JOINT ThumbLeft
              {
                OFFSET 3.709408 -0.257869 -4.035993
                CHANNELS 3 Zrotation Xrotation Yrotation
                End Site
                {
                  OFFSET 0 0 0
                }
              }
            }
          }
        }
      }
      JOINT ShoulderRight
      {
        OFFSET 13.450187 -2.517212 -8.884442
        CHANNELS 3 Zrotation Xrotation Yrotation
        JOINT ElbowRight
        {
          OFFSET 4.769503 -22.986435 -3.075949
          CHANNELS 3 Zrotation Xrotation Yrotation
          JOINT WristRight
          {
            OFFSET -3.930241 -19.533674 -3.139072
            CHANNELS 3 Zrotation Xrotation Yrotation
            JOINT HandRight
            {
              OFFSET -2.167748 -4.943192 -0.810100
              CHANNELS 3 Zrotation Xrotation Yrotation
              JOINT HandTipRight
              {
                OFFSET -3.007899 -5.272040 -1.222907
                CHANNELS 3 Zrotation Xrotation Yrotation
                End Site
                {
                  OFFSET 0 0 0
                }
              }
              JOINT ThumbRight
              {
                OFFSET -2.030714 2.006276 -0.690041
                CHANNELS 3 Zrotation Xrotation Yrotation
                End Site
                {
                  OFFSET 0 0 0
                }
              }
            }
          }
        }
      }
    }
  }
  JOINT HipLeft
  {
    OFFSET -5.122225 0.121949 0.030090
    CHANNELS 3 Zrotation Xrotation Yrotation
    JOINT KneeLeft
    {
      OFFSET 3.517931 -27.093775 5.654164
      CHANNELS 3 Zrotation Xrotation Yrotation
      JOINT AnkleLeft
      {
        OFFSET 7.088184 -32.949622 4.765976
        CHANNELS 3 Zrotation Xrotation Yrotation
        JOINT FootLeft
        {
          OFFSET -4.723924 -3.337684 -12.306687
          CHANNELS 3 Zrotation Xrotation Yrotation
          End Site
          {
            OFFSET 0 0 0
          }
        }
      }
    }
  }
  JOINT HipRight
  {
    OFFSET 5.817289 1.325232 -6.443772
    CHANNELS 3 Zrotation Xrotation Yrotation
    JOINT KneeRight
    {
      OFFSET 7.816056 -25.364108 4.887119
      CHANNELS 3 Zrotation Xrotation Yrotation
      JOINT AnkleRight
      {
        OFFSET 2.904354 -33.086565 7.695072
        CHANNELS 3 Zrotation Xrotation Yrotation
        JOINT FootRight
        {
          OFFSET -2.439142 -7.538460 -3.767352
          CHANNELS 3 Zrotation Xrotation Yrotation
          End Site
          {
            OFFSET 0 0 0
          }
        }
      }
    }
  }
}
MOTION
Frames: 6
Frame Time: 0.033333
-35.688686 66.419846 348.214066 -0.000000 0.000000 30.616491 -0.000000 0.000000 -30.616491 -0.000000 0.000000 0.000000 -0.000000 0.000000 0.000000 0.000000 0.000000 0.000000 -0.000000 0.000000 0.000000 -0.000000 0.000000 0.000000 -0.000000 0.000000 0.000000 -0.000000 0.000000 0.000000 0.000000 0.000000 0.000000 0.000000 0.000000 0.000000 -0.000000 0.000000 0.000000 -0.000000 0.000000 0.000000 -0.000000 0.000000 0.000000 -0.000000 0.000000 0.000000 0.000000 0.000000 0.000000 0.000000 0.000000 0.000000 -0.000000 0.000000 -30.616491 -0.000000 0.000000 0.000000 -0.000000 0.000000 0.000000 0.000000 0.000000 0.000000 -0.000000 0.000000 -30.616491 -0.000000 0.000000 0.000000 -0.000000 0.000000 0.000000 0.000000 0.000000 0.000000
-35.879821 66.187379 348.301597 -0.169570 -0.203189 30.775790 0.249659 0.087808 -30.776282 -0.000000 0.000000 0.000000 -0.000000 0.000000 0.000000 0.000000 0.000000 0.000000 0.278207 -0.844011 0.052144 -1.029334 -0.779751 0.092006 0.754692 1.622728 -0.150321 0.015307 -1.331083 -0.055433 0.000000 0.000000 0.000000 0.000000 0.000000 0.000000 1.708101 -2.181742 -0.648449 -0.474479 3.296538 0.223707 0.711928 4.164025 -2.281662 0.670483 -5.092707 2.121350 0.000000 0.000000 0.000000 0.000000 0.000000 0.000000 0.249659 0.087808 -30.776282 -0.000000 0.000000 0.000000 0.933904 -2.610652 0.302165 0.000000 0.000000 0.000000 1.143034 -0.173056 -30.530698 -0.902035 -0.229138 -0.246723 -4.377959 1.629314 1.690965 0.000000 0.000000 0.000000
-35.985697 66.032089 348.382800 -0.242275 -0.382017 31.022948 0.404507 0.202505 -31.024471 -0.000000 0.000000 0.000000 0.206646 0.904960 0.394978 0.000000 0.000000 0.000000 0.534580 -1.606163 0.102993 -1.824772 -1.314495 0.150545 1.301719 2.917802 -0.268436 0.627684 -1.795895 -0.151117 0.000000 0.000000 0.000000 0.000000 0.000000 0.000000 2.953944 -3.225487 -0.980050 -2.065380 5.580461 0.434689 0.610779 6.864762 -3.750731 2.077027 -8.750709 3.780716 0.000000 0.000000 0.000000 0.000000 0.000000 0.000000 1.582250 -0.089028 -30.737460 -1.161309 -0.351346 -0.291738 1.770870 -4.924051 0.633892 0.000000 0.000000 0.000000 2.003132 -0.242889 -30.580978 -2.470701 -0.635999 -0.677204 -7.197667 3.595928 3.296099 0.000000 0.000000 0.000000
-36.006313 65.953974 348.457677 -0.219669 -0.537811 31.358331 0.467460 0.344932 -31.360769 -0.000000 0.000000 0.000000 0.318647 1.224155 0.532927 0.000000 0.000000 0.000000 0.768752 -2.285791 0.151510 -2.386558 -1.597517 0.175814 1.637610 3.879480 -0.342430 1.894084 -1.281814 -0.298028 0.000000 0.000000 0.000000 0.000000 0.000000 0.000000 3.811769 -3.186165 -1.062076 -4.701520 6.989292 0.683612 -0.057012 8.692526 -4.593879 3.962206 -11.629240 5.098134 0.000000 0.000000 0.000000 0.000000 0.000000 0.000000 1.969226 0.109836 -30.998342 -1.408425 -0.571784 -0.375415 2.458184 -6.805432 0.965148 0.000000 0.000000 0.000000 2.580071 -0.210525 -30.769945 -3.294303 -0.879505 -0.922452 -9.758114 5.615740 4.374374 0.000000 0.000000 0.000000
-35.941669 65.953035 348.526226 -0.102178 -0.671616 31.782048 0.440604 0.517090 -31.784635 -0.000000 0.000000 0.000000 0.437588 1.456445 0.632338 0.000000 0.000000 0.000000 0.980392 -2.882434 0.196752 -2.720155 -1.631542 0.167344 1.764858 4.511012 -0.365326 3.844533 0.285117 -0.540461 0.000000 0.000000 0.000000 0.000000 0.000000 0.000000 4.311447 -2.042084 -0.919090 -8.493945 7.612527 0.915882 -1.208112 9.895764 -4.921876 6.232407 -14.083654 6.113829 0.000000 0.000000 0.000000 0.000000 0.000000 0.000000 2.089110 0.475481 -31.393783 -1.428998 -0.822924 -0.415395 2.945367 -8.138629 1.262336 0.000000 0.000000 0.000000 2.874879 -0.074006 -31.098461 -3.838681 -1.076986 -1.100685 -11.541918 7.827848 5.009369 0.000000 0.000000 0.000000
-35.791766 66.029273 348.588448 0.110883 -0.784208 32.293900 0.325255 0.722143 -32.295191 -0.000000 0.000000 0.000000 0.564140 1.602812 0.693894 0.000000 0.000000 0.000000 1.169205 -3.395791 0.237874 -2.835016 -1.427010 0.123899 1.416308 5.636636 -0.220580 6.747353 2.095321 -0.952385 0.000000 0.000000 0.000000 0.000000 0.000000 0.000000 4.439637 0.313654 -0.536949 -13.692360 7.513927 0.957133 -2.811236 10.496822 -4.800589 8.763542 -16.283180 6.771631 0.000000 0.000000 0.000000 0.000000 0.000000 0.000000 1.945869 1.014487 -31.921725 -1.221193 -1.104590 -0.409800 3.191912 -8.839447 1.495144 0.000000 0.000000 0.000000 2.889737 0.171716 -31.565617 -4.102409 -1.230405 -1.209511 -12.519443 10.244373 5.162884 0.000000 0.000000 0.000000
